<svg fill="none" height="16" viewBox="0 0 16 16" width="16" xmlns="http://www.w3.org/2000/svg"><path d="m1.5 0c-.39782 0-.779356.158035-1.06066.43934-.281305.281304-.43934.66284-.43934 1.06066v2c0 .39782.158035.77936.43934 1.06066.281304.2813.66284.43934 1.06066.43934h13c.3978 0 .7794-.15804 1.0607-.43934s.4393-.66284.4393-1.06066v-2c0-.39782-.158-.779356-.4393-1.06066-.2813-.281305-.6629-.43934-1.0607-.43934zm1 2h3c.13261 0 .25979.05268.35355.14645.09377.09376.14645.22094.14645.35355s-.05268.25979-.14645.35355c-.09376.09377-.22094.14645-.35355.14645h-3c-.13261 0-.25979-.05268-.35355-.14645-.09377-.09376-.14645-.22094-.14645-.35355s.05268-.25979.14645-.35355c.09376-.09377.22094-.14645.35355-.14645zm9.927.427c-.0351-.03496-.0589-.07955-.0686-.1281-.0097-.04856-.0048-.0989.0142-.14463.019-.04574.0511-.08482.0923-.11228s.0896-.04208.1391-.04199h.792c.0495-.00009.0979.01453.1391.04199s.0733.06654.0923.11228c.019.04573.0239.09607.0142.14463-.0097.04855-.0335.09314-.0686.1281l-.396.396c-.0232.02328-.0508.04175-.0812.05436-.0304.0126-.0629.01909-.0958.01909s-.0654-.00649-.0958-.01909c-.0304-.01261-.058-.03108-.0812-.05436zm-12.427 5.573c0-.53043.210714-1.03914.585786-1.41421.375073-.37508.883784-.58579 1.414214-.58579h12c.5304 0 1.0391.21071 1.4142.58579.3751.37507.5858.88378.5858 1.41421v5c0 .5304-.2107 1.0391-.5858 1.4142s-.8838.5858-1.4142.5858h-12c-.53043 0-1.039141-.2107-1.414214-.5858-.375072-.3751-.585786-.8838-.585786-1.4142zm1 3v2c0 .2652.10536.5196.29289.7071.18754.1875.44189.2929.70711.2929h12c.2652 0 .5196-.1054.7071-.2929s.2929-.4419.2929-.7071v-2zm14-1v-2c0-.26522-.1054-.51957-.2929-.70711-.1875-.18753-.4419-.29289-.7071-.29289h-12c-.26522 0-.51957.10536-.70711.29289-.18753.18754-.29289.44189-.29289.70711v2zm-13-1.5c0-.13261.05268-.25979.14645-.35355.09376-.09377.22094-.14645.35355-.14645h9c.1326 0 .2598.05268.3536.14645.0937.09376.1464.22094.1464.35355s-.0527.25979-.1464.35355c-.0938.09377-.221.14645-.3536.14645h-9c-.13261 0-.25979-.05268-.35355-.14645-.09377-.09376-.14645-.22094-.14645-.35355zm0 4c0-.1326.05268-.2598.14645-.3536.09376-.0937.22094-.1464.35355-.1464h6c.13261 0 .25979.0527.35355.1464.09377.0938.14645.221.14645.3536s-.05268.2598-.14645.3536c-.09376.0937-.22094.1464-.35355.1464h-6c-.13261 0-.25979-.0527-.35355-.1464-.09377-.0938-.14645-.221-.14645-.3536z" fill="#a2aaad"/></svg>