<svg fill="none" height="16" viewBox="0 0 16 16" width="16" xmlns="http://www.w3.org/2000/svg"><g fill="#a2aaad"><path clip-rule="evenodd" d="m10.854 5.14689c.0466.04645.0835.10162.1087.16237s.0382.12587.0382.19163c0 .06577-.013.13089-.0382.19164-.0252.06074-.0621.11592-.1087.16236l-2.99998 3c-.04644.04657-.10162.08351-.16236.10872-.06075.0252-.12587.03818-.19164.03818s-.13089-.01298-.19163-.03818c-.06075-.02521-.11592-.06215-.16237-.10872l-1.5-1.5c-.04649-.04648-.08336-.10167-.10852-.16241s-.03811-.12584-.03811-.19159c0-.06574.01295-.13084.03811-.19158s.06203-.11593.10852-.16242c.04649-.04648.10168-.08336.16242-.10852s.12584-.03811.19158-.03811c.06575 0 .13085.01295.19159.03811.06073.02516.11592.06204.16241.10852l1.146 1.147 2.64598-2.647c.0465-.04656.1016-.0835.1624-.10871.0607-.02521.1259-.03818.1916-.03818.0658 0 .1309.01297.1917.03818.0607.02521.1159.06215.1623.10871z" fill-rule="evenodd"/><path d="m2 2c0-.53043.21071-1.039141.58579-1.414214.37507-.375072.88378-.585786 1.41421-.585786h8c.5304 0 1.0391.210714 1.4142.585786.3751.375073.5858.883784.5858 1.414214v13.5c0 .0904-.0246.1792-.0711.2568-.0465.0775-.1132.1411-.1929.1837-.0797.0427-.1696.063-.2599.0587-.0903-.0044-.1778-.0331-.2531-.0832l-5.223-2.815-5.223 2.815c-.07529.0501-.16277.0788-.25311.0832-.09034.0043-.18016-.016-.25989-.0587-.07973-.0426-.1464-.1062-.19289-.1837-.04649-.0776-.07106-.1664-.07111-.2568zm2-1c-.26522 0-.51957.10536-.70711.29289-.18753.18754-.29289.44189-.29289.70711v12.566l4.723-2.482c.08206-.0546.17843-.0837.277-.0837s.19494.0291.277.0837l4.723 2.482v-12.566c0-.26522-.1054-.51957-.2929-.70711-.1875-.18753-.4419-.29289-.7071-.29289z"/></g></svg>