<svg fill="none" height="16" viewBox="0 0 16 16" width="16" xmlns="http://www.w3.org/2000/svg"><path d="m10.478 1.64709c.0193-.06277.0261-.12873.0199-.19411s-.0252-.1289-.0559-.18694c-.0308-.05804-.0726-.10945-.1232-.15131-.0506-.04185-.109-.07333-.1718-.09264-.0627-.0193-.1287-.026053-.19407-.01987-.06538.00619-.12891.0252-.18694.05593-.05804.03074-.10945.0726-.15131.12321s-.07334.10896-.09264.17173l-4 13.00001c-.03899.1268-.02602.2638.03606.381.06207.1173.16817.205.29494.244s.26384.026.38105-.0361c.11721-.062.20496-.1681.24395-.2949zm-5.62396 2.499c.04656.04645.08351.10162.10871.16237.02521.06074.03818.12587.03818.19163 0 .06577-.01297.13089-.03818.19164-.0252.06074-.06215.11592-.10871.16236l-3.147 3.146 3.147 3.14601c.09389.0939.14663.2212.14663.354s-.05274.2601-.14663.354-.22123.1466-.354.1466c-.13278 0-.26011-.0527-.354-.1466l-3.500001-3.50001c-.046563-.04644-.083506-.10162-.108712-.16236-.025207-.06075-.038181-.12587-.038181-.19164 0-.06576.012974-.13089.038181-.19163.025206-.06075.062149-.11592.108712-.16237l3.500001-3.5c.04644-.04656.10162-.0835.16237-.10871.06074-.02521.12586-.03818.19163-.03818s.13089.01297.19163.03818c.06075.02521.11592.06215.16237.10871zm6.29196 0c-.0465.04645-.0835.10162-.1087.16237-.0252.06074-.0382.12587-.0382.19163 0 .06577.013.13089.0382.19164.0252.06074.0622.11592.1087.16236l3.147 3.146-3.147 3.14601c-.0464.0465-.0833.1017-.1085.1624-.0251.0607-.0381.1258-.0381.1916 0 .0657.013.1308.0381.1916.0252.0607.0621.1159.1085.1624.0465.0465.1017.0834.1625.1085.0607.0252.1258.0381.1915.0381.0658 0 .1309-.0129.1916-.0381.0608-.0251.116-.062.1624-.1085l3.5-3.50001c.0466-.04644.0835-.10162.1088-.16236.0252-.06075.0381-.12587.0381-.19164 0-.06576-.0129-.13089-.0381-.19163-.0253-.06075-.0622-.11592-.1088-.16237l-3.5-3.5c-.0464-.04656-.1016-.0835-.1623-.10871-.0608-.02521-.1259-.03818-.1917-.03818-.0657 0-.1308.01297-.1916.03818-.0607.02521-.1159.06215-.1624.10871z" fill="#a2aaad"/></svg>