<svg fill="none" height="16" viewBox="0 0 16 16" width="16" xmlns="http://www.w3.org/2000/svg" xmlns:xlink="http://www.w3.org/1999/xlink"><clipPath id="a"><path d="m0 0h16v16h-16z"/></clipPath><g clip-path="url(#a)"><path d="m0 7.76c0-4.459 3.493-7.76 8-7.76s8 3.301 8 7.76-3.493 7.76-8 7.76c-.81 0-1.586-.107-2.316-.307-.14155-.0394-.29235-.0288-.427.03l-1.588.702c-.09591.0423-.20074.0604-.30528.0527s-.2056-.0409-.29428-.0968-.16227-.1327-.21431-.2237-.08093-.1934-.08413-.2982l-.044-1.423c-.00304-.0866-.02367-.1717-.06063-.2501s-.08948-.1484-.15437-.2059c-1.556-1.392-2.512-3.408-2.512-5.74zm5.546-1.459-2.35 3.728c-.225.358.214.761.551.506l2.525-1.916c.08305-.06308.18438-.09739.28867-.09775.10428-.00036.20585.03325.28933.09575l1.869 1.402c.13261.0994.28438.1703.44575.2082s.32884.0419.49185.0119c.163-.0301.31801-.0936.4553-.1866.1372-.09292.2537-.21329.3421-.3535l2.35-3.728c.226-.358-.214-.761-.551-.506l-2.525 1.916c-.08305.06308-.18438.09739-.28867.09775-.10428.00036-.20585-.03325-.28933-.09575l-1.869-1.403c-.13261-.09944-.28438-.17034-.44575-.20821-.16137-.03788-.32884-.04191-.49185-.01184-.163.03006-.31801.09357-.45525.18652s-.25374.21432-.34215.35453z" fill="#a2aaad"/></g></svg>