<svg fill="none" height="16" viewBox="0 0 16 16" width="16" xmlns="http://www.w3.org/2000/svg"><path d="m14 4.5v9.5c0 .5304-.2107 1.0391-.5858 1.4142s-.8838.5858-1.4142.5858h-8c-.53043 0-1.03914-.2107-1.41421-.5858-.37508-.3751-.58579-.8838-.58579-1.4142v-12c0-.53043.21071-1.039141.58579-1.414214.37507-.375072.88378-.585786 1.41421-.585786h5.5zm-3 0c-.3978 0-.7794-.15804-1.06066-.43934-.2813-.2813-.43934-.66284-.43934-1.06066v-2h-5.5c-.26522 0-.51957.10536-.70711.29289-.18753.18754-.29289.44189-.29289.70711v12c0 .2652.10536.5196.29289.7071.18754.1875.44189.2929.70711.2929h8c.2652 0 .5196-.1054.7071-.2929s.2929-.4419.2929-.7071v-9.5z" fill="#a2aaad"/></svg>