<svg fill="none" height="16" viewBox="0 0 16 16" width="16" xmlns="http://www.w3.org/2000/svg"><g fill="#a2aaad"><path d="m14 12v-2c0-.55228-.4477-1-1-1h-10c-.55229 0-1 .44771-1 1v2c0 .5523.44771 1 1 1h10c.5523 0 1-.4477 1-1z"/><path d="m1.5 14c-.13261 0-.25979.0527-.35355.1464-.09377.0938-.14645.221-.14645.3536s.05268.2598.14645.3536c.09376.0937.22094.1464.35355.1464zm13 1c.1326 0 .2598-.0527.3536-.1464.0937-.0938.1464-.221.1464-.3536s-.0527-.2598-.1464-.3536c-.0938-.0937-.221-.1464-.3536-.1464zm-13 0h13v-1h-13z"/><path d="m1.5 1c-.13261 0-.25979.05268-.35355.14645-.09377.09376-.14645.22094-.14645.35355s.05268.25979.14645.35355c.09376.09377.22094.14645.35355.14645zm13 1c.1326 0 .2598-.05268.3536-.14645.0937-.09376.1464-.22094.1464-.35355s-.0527-.25979-.1464-.35355c-.0938-.09377-.221-.14645-.3536-.14645zm-13 0h13v-1h-13z"/></g></svg>