<svg fill="none" height="16" viewBox="0 0 16 16" width="16" xmlns="http://www.w3.org/2000/svg" xmlns:xlink="http://www.w3.org/1999/xlink"><clipPath id="a"><path d="m0 0h16v16h-16z"/></clipPath><g clip-path="url(#a)" clip-rule="evenodd" fill="#a2aaad" fill-rule="evenodd"><path d="m8.636 3.5c0-.13261-.05268-.25979-.14645-.35355-.09376-.09377-.22094-.14645-.35355-.14645h-6.636c-.39782 0-.779356.15804-1.06066.43934-.281305.2813-.43934.66284-.43934 1.06066v10c0 .3978.158035.7794.43934 1.0607.281304.2813.66284.4393 1.06066.4393h10c.3978 0 .7794-.158 1.0607-.4393s.4393-.6629.4393-1.0607v-6.636c0-.13261-.0527-.25979-.1464-.35355-.0938-.09377-.221-.14645-.3536-.14645s-.2598.05268-.3536.14645c-.0937.09376-.1464.22094-.1464.35355v6.636c0 .1326-.0527.2598-.1464.3536-.0938.0937-.221.1464-.3536.1464h-10c-.13261 0-.25979-.0527-.35355-.1464-.09377-.0938-.14645-.221-.14645-.3536v-10c0-.13261.05268-.25979.14645-.35355.09376-.09377.22094-.14645.35355-.14645h6.636c.13261 0 .25979-.05268.35355-.14645.09377-.09376.14645-.22094.14645-.35355z"/><path d="m16 .5c0-.132608-.0527-.259785-.1464-.353553-.0938-.0937686-.221-.146447-.3536-.146447h-5c-.1326 0-.2598.0526784-.3535.146447-.0938.093768-.1465.220945-.1465.353553s.0527.259785.1465.353553c.0937.093769.2209.146447.3535.146447h3.793l-8.14698 8.146c-.04649.04649-.08336.10168-.10852.16242s-.03811.12584-.03811.19158.01295.13084.03811.19158.06203.11593.10852.16242.10168.08336.16242.10852.12584.03808.19158.03808c.06575 0 .13085-.01292.19159-.03808.06073-.02516.11592-.06203.16241-.10852l8.14598-8.147v3.793c0 .13261.0527.25979.1465.35355.0937.09377.2209.14645.3535.14645s.2598-.05268.3536-.14645c.0937-.09376.1464-.22094.1464-.35355z"/></g></svg>