<svg fill="none" height="16" viewBox="0 0 16 16" width="16" xmlns="http://www.w3.org/2000/svg" xmlns:xlink="http://www.w3.org/1999/xlink"><clipPath id="a"><path d="m0 0h16v16h-16z"/></clipPath><g clip-path="url(#a)"><path d="m7.06801.7275c.243-.97 1.62-.97 1.864 0l.071.286c.04154.16621.12681.31827.24694.44041.12014.12214.27077.2099.43627.25418s.33988.04347.50488-.00235c.1651-.04582.3149-.13499.4339-.25824l.205-.211c.695-.719 1.888-.03 1.613.931l-.08.284c-.0471.16465-.0493.3389-.0064.50468.043.16579.1295.31707.2506.43816.1211.1211.2723.20759.4381.25052s.3401.04074.5047-.00636l.283-.081c.96-.275 1.65.918.931 1.613l-.211.205c-.1232.11899-.2124.2688-.2582.43388-.0459.16508-.0467.33941-.0024.50491s.1321.31613.2542.43627c.1221.12013.2742.2054.4404.24694l.286.071c.97.243.97 1.62 0 1.864l-.286.071c-.1662.04154-.3183.12681-.4404.24694-.1221.12014-.2099.27077-.2542.43627s-.0435.33979.0024.50489c.0458.1651.135.3149.2582.4339l.211.205c.719.695.03 1.888-.931 1.613l-.284-.08c-.1646-.0471-.3389-.0493-.5047-.0064-.1658.043-.317.1295-.4381.2506s-.2076.2723-.2506.4381c-.0429.1658-.0407.3401.0064.5047l.081.283c.275.96-.918 1.65-1.613.931l-.205-.211c-.119-.1233-.2688-.2124-.4339-.2582-.165-.0459-.33938-.0467-.50488-.0024s-.31613.1321-.43627.2542c-.12013.1221-.2054.2742-.24694.4404l-.071.286c-.243.97-1.62.97-1.864 0l-.071-.286c-.04154-.1662-.1268-.3183-.24694-.4404s-.27077-.2099-.43627-.2542-.33983-.0435-.50491.0024c-.16508.0458-.31488.1349-.43388.2582l-.205.211c-.695.719-1.888.03-1.613-.931l.08-.284c.04701-.1645.04918-.3387.00629-.5043-.0429-.1657-.12929-.3169-.25025-.4379-.12095-.1211-.27207-.2076-.4377-.2507-.16563-.043-.33975-.041-.50434.0059l-.284.081c-.96.275-1.649998-.918-.931-1.613l.211-.205c.12325-.119.21242-.2688.25824-.4339s.04664-.33939.00235-.50489c-.04428-.1655-.13204-.31613-.25418-.43627-.12214-.12013-.2742-.2054-.44041-.24694l-.285998-.071c-.97-.243-.97-1.62 0-1.864l.285998-.071c.16621-.04154.31827-.12681.44041-.24694.12214-.12014.2099-.27077.25418-.43627.04429-.1655.04347-.33983-.00235-.50491s-.13499-.31489-.25824-.43388l-.211-.205c-.718998-.695-.03-1.888.931-1.613l.284.08c.16455.04701.33867.04918.50433.00628.16567-.04289.31686-.12929.43792-.25024.12105-.12096.20758-.27207.25061-.4377s.04101-.33975-.00586-.50434l-.081-.284c-.275-.96.918-1.65 1.613-.931l.205.211c.119.12325.2688.21242.43388.25824s.33941.04663.50491.00235.31613-.13204.43627-.25418.2054-.2742.24694-.44041zm5.90499 7.773h-4.72299l-2.834 3.779c.72188.436 1.54234.6823 2.38501.7158.84266.0336 1.68012-.1466 2.43438-.5238.7543-.3772 1.4009-.9391 1.8795-1.6334.4787-.6943.7739-1.49849.8581-2.3376zm0-1c-.0842-.83911-.3794-1.64327-.8581-2.3376-.4786-.69432-1.1252-1.25624-1.8795-1.63343-.75426-.37719-1.59172-.55738-2.43438-.52381-.84267.03358-1.66313.27983-2.38501.71584l2.834 3.78zm-7.92499-3.533c-.03.021-.058.043-.087.065zm-.431.355c-.50963.46747-.91641 1.03588-1.19445 1.66909s-.42126 1.31735-.42055 2.00891c0 1.455.622 2.765 1.615 3.678l2.758-3.678z" fill="#a2aaad"/></g></svg>