<svg fill="none" height="16" viewBox="0 0 16 16" width="16" xmlns="http://www.w3.org/2000/svg" xmlns:xlink="http://www.w3.org/1999/xlink"><clipPath id="a"><path d="m0 0h16v16h-16z"/></clipPath><g clip-path="url(#a)"><path d="m0 1c0-.265216.105357-.51957.292893-.707107.187537-.187536.441891-.292893.707107-.292893h14c.2652 0 .5196.105357.7071.292893.1875.187537.2929.441891.2929.707107v14c0 .2652-.1054.5196-.2929.7071s-.4419.2929-.7071.2929h-14c-.265216 0-.51957-.1054-.707107-.2929-.187536-.1875-.292893-.4419-.292893-.7071zm4 0v6h8v-6zm8 8h-8v6h8zm-11-8v2h2v-2zm2 3h-2v2h2zm-2 3v2h2v-2zm2 3h-2v2h2zm-2 3v2h2v-2zm14-12h-2v2h2zm-2 3v2h2v-2zm2 3h-2v2h2zm-2 3v2h2v-2zm2 3h-2v2h2z" fill="#a2aaad"/></g></svg>