<svg fill="none" height="16" viewBox="0 0 16 16" width="16" xmlns="http://www.w3.org/2000/svg" xmlns:xlink="http://www.w3.org/1999/xlink"><clipPath id="a"><path d="m0 0h16v16h-16z"/></clipPath><g clip-path="url(#a)" fill="#a2aaad"><path d="m1.5 0c-.39782 0-.779356.158035-1.06066.43934-.281305.281304-.43934.66284-.43934 1.06066v11.5c0 .2652.105357.5196.292893.7071.187537.1875.441891.2929.707107.2929v-12.5c0-.13261.05268-.25979.14645-.35355.09376-.09377.22094-.14645.35355-.14645h12.5c0-.265216-.1054-.51957-.2929-.707107-.1875-.187536-.4419-.292893-.7071-.292893z"/><path d="m3.5 2c-.39782 0-.77936.15804-1.06066.43934s-.43934.66284-.43934 1.06066v11c0 .3978.15804.7794.43934 1.0607s.66284.4393 1.06066.4393h6.086c.39769-.0004.779-.1586 1.06-.44l4.915-4.914c.281-.2812.4389-.66245.439-1.06v-6.086c0-.39782-.158-.77936-.4393-1.06066s-.6629-.43934-1.0607-.43934zm-.5 1.5c0-.13261.05268-.25979.14645-.35355.09376-.09377.22094-.14645.35355-.14645h11c.1326 0 .2598.05268.3536.14645.0937.09376.1464.22094.1464.35355v5.5h-4.5c-.3978 0-.77936.15804-1.06066.43934s-.43934.66286-.43934 1.06066v4.5h-5.5c-.13261 0-.25979-.0527-.35355-.1464-.09377-.0938-.14645-.221-.14645-.3536zm7 11.293v-4.293c0-.1326.0527-.2598.1464-.3536.0938-.0937.221-.1464.3536-.1464h4.293z"/></g></svg>