<svg fill="none" height="16" viewBox="0 0 16 16" width="16" xmlns="http://www.w3.org/2000/svg"><g fill="#a2aaad"><path d="m10 7v1.076c.54.166 1 .597 1 1.224v2.4c0 .816-.781 1.3-1.5 1.3h-3c-.719 0-1.5-.484-1.5-1.3v-2.4c0-.627.46-1.058 1-1.224v-1.076c0-.53043.21071-1.03914.58579-1.41421.37507-.37508.88378-.58579 1.41421-.58579s1.03914.21071 1.41421.58579c.37508.37507.58579.88378.58579 1.41421zm-3 0v1h2v-1c0-.26522-.10536-.51957-.29289-.70711-.18754-.18753-.44189-.29289-.70711-.29289s-.51957.10536-.70711.29289c-.18753.18754-.29289.44189-.29289.70711z"/><path d="m14 14v-9.5l-4.5-4.5h-5.5c-.53043 0-1.03914.210714-1.41421.585786-.37508.375073-.58579.883784-.58579 1.414214v12c0 .5304.21071 1.0391.58579 1.4142.37507.3751.88378.5858 1.41421.5858h8c.5304 0 1.0391-.2107 1.4142-.5858s.5858-.8838.5858-1.4142zm-4.5-11c0 .39782.15804.77936.43934 1.06066.28126.2813.66286.43934 1.06066.43934h2v9.5c0 .2652-.1054.5196-.2929.7071s-.4419.2929-.7071.2929h-8c-.26522 0-.51957-.1054-.70711-.2929-.18753-.1875-.29289-.4419-.29289-.7071v-12c0-.26522.10536-.51957.29289-.70711.18754-.18753.44189-.29289.70711-.29289h5.5z"/></g></svg>