<svg fill="none" height="16" viewBox="0 0 16 16" width="16" xmlns="http://www.w3.org/2000/svg"><g fill="#a2aaad"><path d="m12.5 16c.9283 0 1.8185-.3687 2.4749-1.0251s1.0251-1.5466 1.0251-2.4749-.3687-1.8185-1.0251-2.4749c-.6564-.65635-1.5466-1.0251-2.4749-1.0251s-1.8185.36875-2.4749 1.0251c-.65635.6564-1.0251 1.5466-1.0251 2.4749s.36875 1.8185 1.0251 2.4749c.6564.6564 1.5466 1.0251 2.4749 1.0251zm1.679-4.493-1.335 2.226c-.0587.0978-.1389.1809-.2345.2431-.0956.0621-.2042.1016-.3173.1155-.1132.0139-.2281.0018-.3359-.0354s-.2057-.0985-.2863-.1792l-.774-.773c-.0939-.0939-.1466-.2212-.1466-.354s.0527-.2601.1466-.354.2212-.1466.354-.1466.2601.0527.354.1466l.547.548 1.17-1.951c.0337-.0563.0783-.1055.131-.1446s.1127-.0675.1764-.0835c.0637-.0159.1299-.0192.1949-.0096.0649.0096.1274.032.1837.0657s.1055.0783.1446.131.0675.1127.0835.1764c.0159.0637.0192.1299.0096.1949-.0096.0649-.032.1274-.0657.1837zm-3.179-6.507c0 .79565-.3161 1.55871-.8787 2.12132-.56259.56261-1.32565.87868-2.1213.87868s-1.55871-.31607-2.12132-.87868-.87868-1.32567-.87868-2.12132.31607-1.55871.87868-2.12132 1.32567-.87868 2.12132-.87868 1.55871.31607 2.1213.87868c.5626.56261.8787 1.32567.8787 2.12132z"/><path d="m2 13c0 1 1 1 1 1h5.256c-.17-.4818-.25657-.9891-.256-1.5-.00066-.6431.13685-1.2789.40324-1.8643.26638-.5854.65541-1.10672 1.14076-1.5287-.467-.069-.98-.107-1.544-.107-5 0-6 3-6 4z"/></g></svg>