<svg fill="none" height="16" viewBox="0 0 16 16" width="16" xmlns="http://www.w3.org/2000/svg"><g fill="#a2aaad"><path d="m6 4.5c0 .39782-.15804.77936-.43934 1.06066s-.66284.43934-1.06066.43934-.77936-.15804-1.06066-.43934-.43934-.66284-.43934-1.06066.15804-.77936.43934-1.06066.66284-.43934 1.06066-.43934.77936.15804 1.06066.43934.43934.66284.43934 1.06066zm-1 0c0-.13261-.05268-.25979-.14645-.35355-.09376-.09377-.22094-.14645-.35355-.14645s-.25979.05268-.35355.14645c-.09377.09376-.14645.22094-.14645.35355s.05268.25979.14645.35355c.09376.09377.22094.14645.35355.14645s.25979-.05268.35355-.14645c.09377-.09376.14645-.22094.14645-.35355z"/><path d="m2 1h4.586c.26519.00006.51951.10545.707.293l7 7c.1875.18753.2928.44184.2928.707s-.1053.51947-.2928.707l-4.586 4.586c-.18753.1875-.44184.2928-.707.2928s-.51947-.1053-.707-.2928l-7-7c-.18755-.18749-.29294-.44181-.293-.707v-4.586c0-.26522.10536-.51957.29289-.70711.18754-.18753.44189-.29289.70711-.29289zm0 5.586 7 7 4.586-4.586-7-7h-4.586z"/></g></svg>