<svg fill="none" height="16" viewBox="0 0 16 16" width="16" xmlns="http://www.w3.org/2000/svg" xmlns:xlink="http://www.w3.org/1999/xlink"><clipPath id="a"><path d="m0 0h16v16h-16z"/></clipPath><g clip-path="url(#a)" fill="#a2aaad"><path d="m11 6c0 .79565-.3161 1.55871-.8787 2.12132-.56259.56261-1.32565.87868-2.1213.87868s-1.55871-.31607-2.12132-.87868-.87868-1.32567-.87868-2.12132.31607-1.55871.87868-2.12132 1.32567-.87868 2.12132-.87868 1.55871.31607 2.1213.87868c.5626.56261.8787 1.32567.8787 2.12132z"/><path clip-rule="evenodd" d="m0 8c0-2.12173.842855-4.15656 2.34315-5.65685 1.50029-1.500295 3.53512-2.34315 5.65685-2.34315 2.1217 0 4.1566.842855 5.6569 2.34315 1.5002 1.50029 2.3431 3.53512 2.3431 5.65685 0 2.1217-.8429 4.1566-2.3431 5.6569-1.5003 1.5002-3.5352 2.3431-5.6569 2.3431-2.12173 0-4.15656-.8429-5.65685-2.3431-1.500295-1.5003-2.34315-3.5352-2.34315-5.6569zm8-7c-1.31822.00007-2.60963.37236-3.7256 1.07403-1.11596.70166-2.01112 1.70418-2.58244 2.89216-.57131 1.18799-.795574 2.51315-.64696 3.82297.14861 1.30984.66405 2.55104 1.487 3.58084.71-1.144 2.273-2.37 5.468-2.37s4.757 1.225 5.468 2.37c.8229-1.0298 1.3384-2.271 1.487-3.58084.1486-1.30982-.0756-2.63498-.647-3.82297-.5713-1.18798-1.4664-2.1905-2.5824-2.89216-1.116-.70167-2.40738-1.07396-3.7256-1.07403z" fill-rule="evenodd"/></g></svg>